name rise49.25peak52.1432fall72.8391.mot
datacolumns 19
datarows 30
range 20.63659100000000 20.68491800000000
endheader
time	ground_force1_vx	ground_force1_vy	ground_force1_vz	ground_force1_px	ground_force1_py	ground_force1_pz	ground_force2_vx	ground_force2_vy	ground_force2_vz	ground_force2_px	ground_force2_py	ground_force2_pz	ground_torque1_x	ground_torque1_y	ground_torque1_z	ground_torque2_x	ground_torque2_y	ground_torque2_z	
20.63659100000000	7.26492700000000	732.75139700000000	40.67909300000000	0.22627200000000	0.00000000000000	0.09710200000000	0.00000000000000	0.00000000000000	0.00000000000000	0.00000000000000	0.00000000000000	0.00000000000000	0.00000000000000	16.91939900000000	0.00000000000000	0.00000000000000	0.00000000000000	0.00000000000000	
20.63825300000000	6.94066800000000	733.46358999999995	40.59895200000000	0.22541900000000	0.00000000000000	0.09705400000000	0.00000000000000	0.00000000000000	0.00000000000000	0.00000000000000	0.00000000000000	0.00000000000000	0.00000000000000	16.90064700000000	0.00000000000000	0.00000000000000	0.00000000000000	0.00000000000000	
20.63992000000000	6.61257400000000	734.17271300000004	40.51977900000000	0.22455500000000	0.00000000000000	0.09700700000000	0.00000000000000	0.00000000000000	0.00000000000000	0.00000000000000	0.00000000000000	0.00000000000000	0.00000000000000	16.88315600000000	0.00000000000000	0.00000000000000	0.00000000000000	0.00000000000000	
20.64158900000000	6.28057200000000	734.87735699999996	40.44165200000000	0.22368100000000	0.00000000000000	0.09696100000000	0.00000000000000	0.00000000000000	0.00000000000000	0.00000000000000	0.00000000000000	0.00000000000000	0.00000000000000	16.86702700000000	0.00000000000000	0.00000000000000	0.00000000000000	0.00000000000000	
20.64325600000000	5.94460700000000	735.57619699999998	40.36465100000000	0.22279700000000	0.00000000000000	0.09691700000000	0.00000000000000	0.00000000000000	0.00000000000000	0.00000000000000	0.00000000000000	0.00000000000000	0.00000000000000	16.85236100000000	0.00000000000000	0.00000000000000	0.00000000000000	0.00000000000000	
20.64491900000000	5.60463800000000	736.26799200000005	40.28885600000000	0.22190400000000	0.00000000000000	0.09687400000000	0.00000000000000	0.00000000000000	0.00000000000000	0.00000000000000	0.00000000000000	0.00000000000000	0.00000000000000	16.83925800000000	0.00000000000000	0.00000000000000	0.00000000000000	0.00000000000000	
20.64658900000000	5.26064100000000	736.95159400000000	40.21434400000000	0.22100300000000	0.00000000000000	0.09683200000000	0.00000000000000	0.00000000000000	0.00000000000000	0.00000000000000	0.00000000000000	0.00000000000000	0.00000000000000	16.82781800000000	0.00000000000000	0.00000000000000	0.00000000000000	0.00000000000000	
20.64825500000000	4.91261000000000	737.62594600000000	40.14119600000000	0.22009300000000	0.00000000000000	0.09679100000000	0.00000000000000	0.00000000000000	0.00000000000000	0.00000000000000	0.00000000000000	0.00000000000000	0.00000000000000	16.81813800000000	0.00000000000000	0.00000000000000	0.00000000000000	0.00000000000000	
20.64991800000000	4.56055100000000	738.29008799999997	40.06948900000000	0.21917600000000	0.00000000000000	0.09675200000000	0.00000000000000	0.00000000000000	0.00000000000000	0.00000000000000	0.00000000000000	0.00000000000000	0.00000000000000	16.81031300000000	0.00000000000000	0.00000000000000	0.00000000000000	0.00000000000000	
20.65158400000000	4.20448800000000	738.94315800000004	39.99930100000000	0.21825300000000	0.00000000000000	0.09671400000000	0.00000000000000	0.00000000000000	0.00000000000000	0.00000000000000	0.00000000000000	0.00000000000000	0.00000000000000	16.80443400000000	0.00000000000000	0.00000000000000	0.00000000000000	0.00000000000000	
20.65325400000000	3.84445700000000	739.58439499999997	39.93070900000000	0.21732400000000	0.00000000000000	0.09667700000000	0.00000000000000	0.00000000000000	0.00000000000000	0.00000000000000	0.00000000000000	0.00000000000000	0.00000000000000	16.80059200000000	0.00000000000000	0.00000000000000	0.00000000000000	0.00000000000000	
20.65493300000000	3.48051100000000	740.21313599999996	39.86379000000000	0.21639100000000	0.00000000000000	0.09664100000000	0.00000000000000	0.00000000000000	0.00000000000000	0.00000000000000	0.00000000000000	0.00000000000000	0.00000000000000	16.79886900000000	0.00000000000000	0.00000000000000	0.00000000000000	0.00000000000000	
20.65658900000000	3.11271600000000	740.82882600000005	39.79862000000000	0.21545400000000	0.00000000000000	0.09660600000000	0.00000000000000	0.00000000000000	0.00000000000000	0.00000000000000	0.00000000000000	0.00000000000000	0.00000000000000	16.79934600000000	0.00000000000000	0.00000000000000	0.00000000000000	0.00000000000000	
20.65826200000000	2.74115200000000	741.43101100000001	39.73527400000000	0.21451400000000	0.00000000000000	0.09657200000000	0.00000000000000	0.00000000000000	0.00000000000000	0.00000000000000	0.00000000000000	0.00000000000000	0.00000000000000	16.80209800000000	0.00000000000000	0.00000000000000	0.00000000000000	0.00000000000000	
20.65992300000000	2.36591000000000	742.01933899999995	39.67382700000000	0.21357200000000	0.00000000000000	0.09653800000000	0.00000000000000	0.00000000000000	0.00000000000000	0.00000000000000	0.00000000000000	0.00000000000000	0.00000000000000	16.80719600000000	0.00000000000000	0.00000000000000	0.00000000000000	0.00000000000000	
20.66159000000000	1.98709600000000	742.59356500000001	39.61435500000000	0.21263000000000	0.00000000000000	0.09650500000000	0.00000000000000	0.00000000000000	0.00000000000000	0.00000000000000	0.00000000000000	0.00000000000000	0.00000000000000	16.81470300000000	0.00000000000000	0.00000000000000	0.00000000000000	0.00000000000000	
20.66325700000000	1.60482700000000	743.15354600000001	39.55693100000000	0.21168700000000	0.00000000000000	0.09647300000000	0.00000000000000	0.00000000000000	0.00000000000000	0.00000000000000	0.00000000000000	0.00000000000000	0.00000000000000	16.82467900000000	0.00000000000000	0.00000000000000	0.00000000000000	0.00000000000000	
20.66492400000000	1.21923000000000	743.69924100000003	39.50162900000000	0.21074600000000	0.00000000000000	0.09644200000000	0.00000000000000	0.00000000000000	0.00000000000000	0.00000000000000	0.00000000000000	0.00000000000000	0.00000000000000	16.83717400000000	0.00000000000000	0.00000000000000	0.00000000000000	0.00000000000000	
20.66658800000000	0.83044600000000	744.23070900000005	39.44852300000000	0.20980600000000	0.00000000000000	0.09641100000000	0.00000000000000	0.00000000000000	0.00000000000000	0.00000000000000	0.00000000000000	0.00000000000000	0.00000000000000	16.85223400000000	0.00000000000000	0.00000000000000	0.00000000000000	0.00000000000000	
20.66825400000000	0.43862300000000	744.74811000000000	39.39768600000000	0.20886900000000	0.00000000000000	0.09638000000000	0.00000000000000	0.00000000000000	0.00000000000000	0.00000000000000	0.00000000000000	0.00000000000000	0.00000000000000	16.86989800000000	0.00000000000000	0.00000000000000	0.00000000000000	0.00000000000000	
20.66991800000000	0.04392000000000	745.25169900000003	39.34919200000000	0.20793600000000	0.00000000000000	0.09635000000000	0.00000000000000	0.00000000000000	0.00000000000000	0.00000000000000	0.00000000000000	0.00000000000000	0.00000000000000	16.89019600000000	0.00000000000000	0.00000000000000	0.00000000000000	0.00000000000000	
20.67158900000000	-0.35349200000000	745.74182399999995	39.30311400000000	0.20700700000000	0.00000000000000	0.09632000000000	0.00000000000000	0.00000000000000	0.00000000000000	0.00000000000000	0.00000000000000	0.00000000000000	0.00000000000000	16.91315200000000	0.00000000000000	0.00000000000000	0.00000000000000	0.00000000000000	
20.67325400000000	-0.75343800000000	746.21892600000001	39.25952500000000	0.20608400000000	0.00000000000000	0.09629000000000	0.00000000000000	0.00000000000000	0.00000000000000	0.00000000000000	0.00000000000000	0.00000000000000	0.00000000000000	16.93878100000000	0.00000000000000	0.00000000000000	0.00000000000000	0.00000000000000	
20.67492300000000	-1.15573000000000	746.68353200000001	39.21849900000000	0.20516700000000	0.00000000000000	0.09626000000000	0.00000000000000	0.00000000000000	0.00000000000000	0.00000000000000	0.00000000000000	0.00000000000000	0.00000000000000	16.96709000000000	0.00000000000000	0.00000000000000	0.00000000000000	0.00000000000000	
20.67658600000000	-1.56017600000000	747.13625200000001	39.18010700000000	0.20425600000000	0.00000000000000	0.09623000000000	0.00000000000000	0.00000000000000	0.00000000000000	0.00000000000000	0.00000000000000	0.00000000000000	0.00000000000000	16.99807900000000	0.00000000000000	0.00000000000000	0.00000000000000	0.00000000000000	
20.67825000000000	-1.96657400000000	747.57777699999997	39.14442500000000	0.20335300000000	0.00000000000000	0.09620000000000	0.00000000000000	0.00000000000000	0.00000000000000	0.00000000000000	0.00000000000000	0.00000000000000	0.00000000000000	17.03173900000000	0.00000000000000	0.00000000000000	0.00000000000000	0.00000000000000	
20.67991600000000	-2.37471600000000	748.00886800000001	39.11152400000000	0.20245800000000	0.00000000000000	0.09617000000000	0.00000000000000	0.00000000000000	0.00000000000000	0.00000000000000	0.00000000000000	0.00000000000000	0.00000000000000	17.06805100000000	0.00000000000000	0.00000000000000	0.00000000000000	0.00000000000000	
20.68158200000000	-2.78438800000000	748.43036099999995	39.08147700000000	0.20157100000000	0.00000000000000	0.09614000000000	0.00000000000000	0.00000000000000	0.00000000000000	0.00000000000000	0.00000000000000	0.00000000000000	0.00000000000000	17.10698900000000	0.00000000000000	0.00000000000000	0.00000000000000	0.00000000000000	
20.68325700000000	-3.19537000000000	748.84315100000003	39.05435900000000	0.20069400000000	0.00000000000000	0.09611000000000	0.00000000000000	0.00000000000000	0.00000000000000	0.00000000000000	0.00000000000000	0.00000000000000	0.00000000000000	17.14851800000000	0.00000000000000	0.00000000000000	0.00000000000000	0.00000000000000	
20.68491800000000	-3.60743500000000	749.24819300000001	39.03024000000000	0.19982500000000	0.00000000000000	0.09607900000000	0.00000000000000	0.00000000000000	0.00000000000000	0.00000000000000	0.00000000000000	0.00000000000000	0.00000000000000	17.19259400000000	0.00000000000000	0.00000000000000	0.00000000000000	0.00000000000000	
